<svg xmlns="http://www.w3.org/2000/svg" viewBox="0 0 64 64" fill="none">
  <rect width="64" height="64" rx="16" fill="#0a0a0a"/>
  <circle cx="32" cy="32" r="22" stroke="#C9A84C" stroke-width="1.5" fill="none"/>
  <path fill="#C9A84C" d="M32 12c1.2 3.5 3.7 6.2 7.2 7.8-2.5 1-4.3 3.2-5.2 5.7 3.7.3 6.8 2.2 8.7 5-3.3.3-6.2 2.2-7.8 5 2 2.8 2.8 6.2 2.2 9.7-2.7-2.2-5.7-3.3-8.7-3.3s-6 1.2-8.7 3.3c-.7-3.5.2-6.8 2.2-9.7-1.7-2.8-4.5-4.7-7.8-5 1.8-2.8 5-4.7 8.7-5-.8-2.5-2.7-4.7-5.2-5.7C28.3 18.2 30.8 15.5 32 12z"/>
</svg>
